#N canvas 1561 0 981 948 12;
#X msg 93 140 disconnect;
#X msg 90 106 connect 127.0.0.1 9999;
#X floatatom 37 238 5 0 0 0 - - - 0;
#X msg 69 352 MyCube_Jackson Jump;
#X obj 34 398 pack s s;
#X obj 34 443 oscformat -f ss /play;
#X obj 37 196 netsend -u -b;
#X msg 34 305 MyCube_Jackson Spin;
#X obj 652 714 oscformat /quit;
#X msg 652 683 1;
#X obj 37 105 r osc;
#X obj 34 477 s osc;
#X obj 652 751 s osc;
#X obj 260 383 f 1;
#X obj 260 413 + 1;
#X obj 307 383 bng 19 250 50 0 empty empty empty 0 -10 0 12 #fcfcfc #000000 #000000;
#X msg 313 302 bang;
#X obj 259 533 sin;
#X obj 260 445 mod 100;
#X obj 259 471 / 100;
#X obj 259 500 * 6.28;
#X floatatom 258 563 5 0 0 0 - - - 0;
#X obj 216 808 s osc;
#X obj 218 640 pack f f f;
#X msg 237 603 0;
#X obj 260 335 metro 100;
#X obj 216 758 oscformat -f sfff /rotate;
#X msg 259 292 stop;
#X text 13 8 Basic test for MyCube Jackson dancing \, by Sandro Benigno;
#X obj 433 807 s osc;
#X obj 433 757 oscformat -f sfff /move;
#X obj 435 638 pack f f f;
#X msg 502 606 0;
#X obj 435 608 * 0.1;
#X text 88 86 1 Connect to the port;
#X text 33 283 2 Click for spinning;
#X text 67 333 3 Click for jumping;
#X text 311 250 4 Click for waving around;
#X msg 313 272 Start Waving;
#X obj 435 675 list prepend MyCube_Base;
#X obj 218 676 list prepend MyCube_Base;
#X obj 504 548 cos;
#X obj 503 576 * 0.1;
#X obj 434 578 sin;
#X obj 275 602 * 0.005;
#X text 647 661 Click to close the simulation;
#X obj 652 617 s osc;
#X obj 652 556 list prepend MyCube_Jackson;
#X text 665 325 5 Slide to morph;
#X msg 567 436 Boom;
#X obj 573 350 hsl 162 19 0 1 0 0 empty empty empty -2 -10 0 12 #fcfcfc #000000 #000000 0 1;
#X obj 567 469 pack s f;
#X obj 569 401 t b f;
#X floatatom 569 377 5 0 0 0 - - - 0;
#X obj 652 583 oscformat -f ssf /morph;
#X obj 662 381 hsl 162 19 0 1 0 0 empty empty empty -2 -10 0 12 #fcfcfc #000000 #000000 0 1;
#X obj 656 500 pack s f;
#X obj 658 432 t b f;
#X floatatom 658 408 5 0 0 0 - - - 0;
#X msg 656 467 Spike;
#X obj 739 409 hsl 162 19 0 1 0 0 empty empty empty -2 -10 0 12 #fcfcfc #000000 #000000 0 1;
#X obj 733 528 pack s f;
#X obj 735 460 t b f;
#X floatatom 735 436 5 0 0 0 - - - 0;
#X msg 733 495 Squeeze;
#X connect 0 0 6 0;
#X connect 1 0 6 0;
#X connect 3 0 4 0;
#X connect 4 0 5 0;
#X connect 5 0 11 0;
#X connect 6 0 2 0;
#X connect 7 0 4 0;
#X connect 8 0 12 0;
#X connect 9 0 8 0;
#X connect 10 0 6 0;
#X connect 13 0 14 0;
#X connect 14 0 13 1;
#X connect 14 0 18 0;
#X connect 16 0 25 0;
#X connect 17 0 21 0;
#X connect 18 0 19 0;
#X connect 19 0 20 0;
#X connect 20 0 17 0;
#X connect 20 0 43 0;
#X connect 20 0 41 0;
#X connect 21 0 24 0;
#X connect 21 0 44 0;
#X connect 23 0 40 0;
#X connect 24 0 23 0;
#X connect 24 0 23 1;
#X connect 25 0 13 0;
#X connect 25 0 15 0;
#X connect 26 0 22 0;
#X connect 27 0 25 0;
#X connect 30 0 29 0;
#X connect 31 0 39 0;
#X connect 32 0 31 2;
#X connect 33 0 31 0;
#X connect 38 0 16 0;
#X connect 39 0 30 0;
#X connect 40 0 26 0;
#X connect 41 0 42 0;
#X connect 42 0 32 0;
#X connect 42 0 31 1;
#X connect 43 0 33 0;
#X connect 44 0 23 2;
#X connect 47 0 54 0;
#X connect 49 0 51 0;
#X connect 50 0 53 0;
#X connect 51 0 47 0;
#X connect 52 0 49 0;
#X connect 52 1 51 1;
#X connect 53 0 52 0;
#X connect 54 0 46 0;
#X connect 55 0 58 0;
#X connect 56 0 47 0;
#X connect 57 0 59 0;
#X connect 57 1 56 1;
#X connect 58 0 57 0;
#X connect 59 0 56 0;
#X connect 60 0 63 0;
#X connect 61 0 47 0;
#X connect 62 0 64 0;
#X connect 62 1 61 1;
#X connect 63 0 62 0;
#X connect 64 0 61 0;
